<?xml version="1.0" standalone="no"?>
<!DOCTYPE svg PUBLIC "-//W3C//DTD SVG 20010904//EN"
 "http://www.w3.org/TR/2001/REC-SVG-20010904/DTD/svg10.dtd">
<svg version="1.0" xmlns="http://www.w3.org/2000/svg"
 width="1024.000000pt" height="1024.000000pt" viewBox="0 0 1024.000000 1024.000000"
 preserveAspectRatio="xMidYMid meet">

<g transform="translate(0.000000,1024.000000) scale(0.100000,-0.100000)"
fill="#000000" stroke="none">
<path d="M5595 9530 c-106 -11 -191 -36 -280 -80 l-80 -40 -51 26 c-99 49
-185 65 -380 71 -113 3 -219 1 -285 -6 -585 -68 -1135 -327 -1529 -721 -410
-410 -654 -939 -677 -1470 -13 -307 45 -552 242 -1019 31 -73 55 -134 53 -136
-2 -1 -30 -15 -62 -31 -156 -77 -252 -228 -274 -430 -10 -92 -3 -230 17 -319
50 -221 185 -454 337 -579 175 -144 407 -206 584 -157 41 12 81 22 88 24 7 1
27 -33 47 -77 60 -138 135 -251 278 -419 l37 -44 -77 -79 c-67 -68 -94 -107
-191 -279 -62 -110 -137 -238 -167 -285 -30 -47 -59 -98 -65 -115 -10 -26 -34
-41 -193 -118 -155 -75 -189 -88 -232 -87 -80 0 -536 -158 -635 -221 -25 -15
-98 -46 -162 -68 -511 -177 -902 -444 -1114 -762 -154 -232 -271 -551 -369
-1003 -55 -256 -126 -737 -150 -1024 l-7 -82 86 0 c100 0 89 -19 106 175 38
436 131 946 236 1294 72 238 176 463 280 608 75 105 72 104 204 82 256 -41
466 -237 655 -610 196 -387 331 -854 411 -1422 l18 -127 87 0 86 0 -24 162
c-56 383 -162 822 -269 1111 -61 167 -197 440 -284 569 -88 132 -238 292 -332
354 -81 54 -194 101 -270 112 l-52 7 99 66 c104 68 142 91 260 153 162 87 438
196 492 196 30 0 155 -125 254 -255 l74 -98 1 -76 c1 -125 56 -243 128 -278
29 -13 36 -26 69 -126 67 -206 196 -663 273 -969 l36 -148 -30 -35 c-17 -19
-34 -51 -38 -71 -11 -62 2 -150 30 -198 33 -56 107 -122 154 -137 21 -6 40
-15 45 -18 4 -4 -10 -64 -32 -133 -21 -69 -42 -140 -46 -157 l-7 -31 90 0 89
0 22 102 c37 166 49 198 71 198 16 0 20 -7 20 -32 1 -74 67 -169 145 -211 55
-29 155 -29 210 0 107 57 157 173 120 282 -21 65 -14 97 22 106 16 3 45 17 65
31 21 13 47 24 58 24 11 0 157 -18 323 -40 559 -73 876 -98 1337 -107 513 -9
954 15 1430 79 188 26 273 27 315 7 29 -14 29 -16 30 -94 1 -61 6 -90 22 -120
44 -84 138 -144 223 -145 75 0 164 51 198 115 9 17 11 16 25 -17 9 -20 26 -68
38 -107 l23 -71 83 0 c46 0 83 2 83 5 0 12 -90 244 -127 330 l-40 90 43 33
c65 48 96 109 102 196 6 90 -17 148 -76 195 -36 29 -41 39 -47 89 -10 83 -68
427 -126 745 l-50 278 27 55 c24 48 26 63 22 132 -7 109 -37 163 -126 222 -15
9 -27 32 -33 60 -5 25 -12 53 -15 62 -4 15 8 12 73 -16 228 -98 457 -227 614
-347 367 -279 587 -707 798 -1549 61 -241 121 -519 121 -558 0 -21 4 -22 90
-22 l90 0 -6 33 c-57 310 -178 804 -258 1047 -161 491 -313 773 -550 1018
-209 216 -557 431 -958 591 -80 32 -113 51 -131 74 -14 19 -56 48 -99 69 -187
93 -581 218 -684 218 -38 0 -72 10 -135 39 l-85 39 -18 58 c-21 68 -105 238
-149 304 -16 25 -46 62 -66 84 -30 31 -33 40 -21 47 238 146 347 224 481 348
202 187 396 478 474 711 15 45 32 83 39 84 6 2 36 9 66 16 107 24 211 101 302
224 212 285 278 731 146 978 -35 67 -103 131 -154 148 l-34 12 63 91 c208 303
333 566 382 802 78 376 -38 855 -317 1302 -186 299 -483 598 -803 809 -331
218 -683 346 -1054 384 -112 11 -112 11 -216 0z m-119 -1032 c134 -141 237
-288 347 -498 132 -251 263 -600 347 -925 23 -88 43 -167 46 -177 4 -12 -5
-18 -38 -23 -131 -22 -208 -81 -208 -161 0 -41 3 -46 33 -58 27 -11 47 -11
122 1 120 19 367 11 490 -15 102 -22 215 -66 300 -117 84 -51 135 -44 151 21
10 41 -39 125 -116 198 -104 98 -207 143 -362 161 -54 6 -71 16 -49 30 16 9
88 204 106 284 33 151 38 383 9 486 -3 11 14 -9 37 -45 78 -119 188 -345 282
-576 102 -251 162 -370 239 -470 l50 -66 -52 -516 c-100 -1002 -131 -1176
-260 -1449 -89 -187 -187 -321 -350 -476 -301 -286 -693 -496 -1033 -553 -137
-23 -420 -15 -562 16 -440 95 -889 341 -1205 660 -170 171 -265 314 -336 508
-30 83 -43 106 -65 118 -39 20 -48 18 -141 -23 -79 -36 -88 -38 -188 -37 -85
0 -115 4 -158 22 -282 117 -474 429 -476 772 -1 189 49 307 159 375 41 25 61
31 126 34 94 4 155 -20 236 -93 50 -45 123 -148 137 -193 9 -28 52 -63 78 -63
11 0 33 13 49 29 l29 29 0 406 0 405 93 54 c135 80 207 137 351 277 148 144
248 265 366 441 46 68 80 113 76 99 -13 -47 -64 -315 -71 -372 -6 -53 -4 -60
20 -84 24 -24 32 -26 76 -21 108 13 305 143 460 304 214 223 392 487 550 818
74 156 168 387 196 482 10 35 21 63 24 63 3 0 42 -37 85 -82z m2067 -2548 c19
-16 45 -54 58 -82 22 -48 24 -66 24 -203 -1 -132 -4 -162 -28 -248 -62 -224
-170 -387 -306 -461 l-53 -28 6 28 c9 43 62 460 91 709 14 121 30 234 35 250
24 70 113 88 173 35z m-3631 -2044 c329 -254 739 -442 1116 -511 104 -20 166
-25 285 -25 233 0 410 35 632 123 49 20 90 35 92 34 3 -4 -15 -101 -117 -615
-76 -383 -92 -452 -120 -505 -37 -70 -92 -144 -179 -237 l-60 -65 -1 45 c0 54
-32 176 -61 231 -21 43 -65 88 -180 190 -92 81 -155 124 -339 229 -489 279
-874 569 -1074 809 -85 102 -107 148 -108 225 -1 53 16 136 28 136 2 0 41 -29
86 -64z m-266 -99 c1 -119 51 -215 192 -372 202 -222 505 -453 912 -694 96
-57 180 -108 187 -113 9 -7 -4 -25 -47 -65 -107 -99 -190 -226 -224 -344 -9
-29 -22 -103 -31 -163 -18 -132 -51 -210 -111 -266 -24 -22 -49 -40 -55 -40
-6 0 -25 15 -41 33 l-31 32 50 5 c27 3 62 14 79 25 16 11 32 20 36 20 3 0 10
4 15 9 5 6 2 6 -6 1 -11 -7 -13 -4 -6 11 5 10 10 40 13 65 7 80 -44 129 -131
129 -50 0 -88 -24 -113 -72 l-15 -30 -32 42 c-80 106 -279 356 -372 465 -326
386 -475 581 -535 700 -64 126 -63 138 7 242 62 92 169 275 222 381 17 34 32
62 34 62 1 0 2 -28 3 -63z m2549 -478 c-4 -6 -33 -142 -65 -302 -32 -161 -65
-320 -73 -354 -9 -35 -13 -63 -10 -63 12 0 72 74 66 83 -3 6 -1 7 6 3 6 -4 23
2 37 13 45 36 164 21 164 -20 0 -6 -12 -1 -26 10 -32 25 -90 27 -124 5 -14 -9
-53 -44 -88 -78 -52 -50 -62 -57 -58 -36 29 126 99 465 121 585 39 218 35 203
46 182 6 -9 7 -22 4 -28z m44 -56 c79 -158 128 -363 117 -493 -7 -87 -19 -139
-29 -124 -3 6 -2 26 3 45 17 57 12 217 -9 304 -31 128 -105 310 -123 299 -4
-3 -5 2 -2 10 3 9 8 16 10 16 2 0 17 -26 33 -57z m-2988 -199 c68 -119 166
-251 348 -469 314 -373 509 -624 660 -848 82 -120 113 -147 177 -155 95 -10
239 97 298 222 14 30 34 87 43 125 l17 71 40 -38 c113 -108 369 -309 429 -338
l34 -16 -13 -54 c-55 -210 -59 -577 -10 -967 6 -53 9 -97 6 -97 -24 0 -405 33
-525 46 -137 14 -458 54 -692 85 l-93 13 0 55 c0 99 -72 209 -147 225 -28 6
-30 12 -121 334 -51 180 -132 450 -181 600 -83 254 -88 275 -75 300 20 38 17
103 -6 173 -36 106 -86 167 -152 183 -20 5 -37 25 -72 90 -53 98 -160 261
-234 359 l-51 67 127 65 c70 35 130 64 133 64 4 1 31 -42 60 -95z m-438 -152
c61 -58 270 -383 256 -396 -6 -6 -510 -79 -513 -75 -1 2 -25 38 -52 79 -57 87
-177 234 -222 272 -38 32 -39 34 -9 41 12 3 114 37 227 75 199 68 206 69 240
55 19 -7 52 -31 73 -51z m3882 -90 c28 -27 76 -127 111 -232 27 -79 29 -94 26
-220 -3 -172 8 -220 63 -280 49 -52 36 14 136 -680 33 -228 64 -433 69 -455 8
-37 7 -42 -30 -81 -23 -25 -42 -57 -46 -78 -9 -53 -1 -146 18 -183 l16 -32
-37 -5 c-74 -12 -401 -46 -536 -56 -172 -13 -568 -30 -574 -24 -8 8 -30 288
-56 704 -18 302 -30 434 -40 457 -16 35 -48 49 -90 39 -52 -13 -52 -26 -19
-546 16 -254 39 -523 53 -607 l8 -53 -72 0 c-40 0 -113 3 -162 6 l-91 7 -11
86 c-63 494 -53 827 32 1052 61 163 114 243 266 403 47 50 104 114 126 141 21
28 42 54 45 58 4 4 8 -16 9 -45 2 -80 29 -232 51 -296 20 -58 67 -112 96 -112
43 0 74 42 108 146 9 28 57 120 107 204 196 331 240 450 242 645 l1 121 80
-32 c44 -17 89 -41 101 -52z m515 -104 c63 -27 123 -56 132 -65 31 -28 107
-207 108 -254 0 -3 -80 9 -177 27 -98 18 -204 36 -235 40 -46 5 -58 10 -58 24
0 59 -62 243 -118 353 -6 11 216 -69 348 -125z m-964 -205 c26 -35 14 -68 -91
-248 -29 -49 -62 -108 -74 -130 l-21 -40 -1 55 c-4 145 2 194 29 230 45 60
126 150 136 150 5 0 15 -8 22 -17z m-1057 -60 c194 -145 206 -168 215 -405 l7
-167 -32 -58 c-18 -32 -34 -60 -35 -62 -9 -12 -161 103 -354 267 -41 35 -96
76 -122 91 l-47 27 23 56 c31 76 71 142 115 191 42 47 128 117 144 117 5 0 44
-26 86 -57z m-1919 -115 c30 -50 27 -76 -12 -83 -126 -21 -611 -95 -626 -95
-21 0 -39 35 -44 85 -3 29 -2 30 62 43 120 23 505 79 553 81 43 1 49 -2 67
-31z m4020 -67 c129 -23 247 -41 263 -41 20 0 32 -8 47 -32 24 -40 26 -86 4
-95 -23 -9 -586 87 -603 102 -8 8 -16 37 -19 66 l-5 52 39 -6 c21 -3 145 -24
274 -46z m-3983 -267 c84 -247 343 -1131 343 -1169 0 -8 -39 -20 -112 -34
-120 -22 -380 -63 -412 -65 -17 -1 -29 35 -101 304 -99 369 -194 703 -245 859
-21 64 -37 117 -36 117 4 4 513 91 520 90 5 -1 25 -47 43 -102z m3978 -4 c88
-17 186 -33 218 -37 31 -3 57 -8 57 -10 0 -2 11 -58 24 -126 50 -252 166 -966
166 -1025 0 -18 -4 -21 -22 -17 -13 3 -114 19 -225 35 -112 16 -207 31 -212
34 -18 12 -29 75 -112 631 -42 284 -75 489 -85 532 -6 21 -4 24 12 20 11 -3
91 -20 179 -37z m-2800 -54 c0 -36 -26 -56 -49 -37 -16 14 -22 52 -9 65 4 4
19 6 33 4 20 -2 25 -8 25 -32z m-634 -1168 c55 -102 9 -199 -125 -264 -82 -40
-88 -41 -84 -12 2 16 24 35 77 64 94 54 112 80 110 159 -2 86 1 93 22 53z
m3326 -103 c24 -43 63 -67 154 -93 75 -22 96 -32 106 -52 6 -13 11 -26 9 -28
-2 -1 -32 6 -67 17 -35 11 -85 23 -111 26 -103 13 -175 136 -137 232 12 28 12
27 24 -27 6 -30 16 -64 22 -75z m743 -45 c-25 -86 -99 -129 -197 -113 l-58 8
26 18 c15 10 51 22 80 26 42 7 60 16 86 45 18 19 33 46 33 58 0 13 3 34 7 48
6 23 8 22 19 -17 8 -28 10 -53 4 -73z m-4930 -34 c32 -101 84 -136 204 -136
89 0 122 -11 138 -45 15 -33 8 -38 -33 -21 -19 8 -70 14 -114 15 -113 2 -174
32 -209 103 -17 35 -26 68 -26 101 0 65 17 58 40 -17z m4610 39 c36 -7 56 -13
45 -14 -11 -1 -35 -10 -53 -21 l-32 -20 -40 26 c-21 14 -60 32 -87 40 l-48 13
75 -5 c41 -3 104 -12 140 -19z m-3985 -10 c-124 -28 -458 -66 -444 -51 12 13
370 62 464 63 36 1 34 -1 -20 -12z m4024 -180 c68 -35 103 -112 82 -178 -28
-82 -125 -121 -201 -79 -47 26 -83 94 -76 146 12 95 115 153 195 111z m-4028
-58 c19 -12 42 -38 51 -57 66 -131 -84 -267 -203 -186 -91 62 -89 190 4 246
44 27 105 26 148 -3z"/>
<path d="M4167 6889 c-145 -19 -284 -81 -384 -172 -107 -98 -139 -170 -95
-210 31 -28 81 -20 201 34 221 98 433 130 730 110 169 -11 202 -7 220 28 40
73 -19 146 -144 179 -151 40 -361 52 -528 31z"/>
<path d="M4371 6248 c-109 -54 -163 -236 -114 -389 25 -77 94 -145 158 -154
88 -14 153 20 197 102 56 104 60 233 8 340 -31 66 -50 86 -103 108 -50 21 -94
19 -146 -7z"/>
<path d="M6314 6246 c-78 -34 -129 -142 -129 -276 0 -101 15 -149 64 -203 171
-190 408 55 322 332 -23 74 -58 123 -104 145 -42 19 -110 20 -153 2z"/>
<path d="M5581 5994 c-45 -57 -17 -157 86 -311 97 -143 116 -190 111 -269 -3
-56 -8 -68 -38 -100 -19 -20 -58 -47 -87 -60 -29 -13 -57 -32 -62 -43 -19 -34
-13 -78 11 -95 77 -54 264 50 318 177 58 135 31 262 -98 461 -27 40 -64 110
-82 155 -18 45 -42 88 -53 96 -35 24 -82 19 -106 -11z"/>
<path d="M2723 5783 c-35 -7 -73 -49 -73 -80 0 -41 26 -73 58 -73 35 -1 102
-31 126 -58 18 -21 18 -22 -5 -74 -20 -46 -24 -69 -24 -168 0 -108 2 -119 30
-174 38 -75 80 -104 122 -84 46 22 51 57 17 130 -30 66 -39 157 -21 223 l8 29
32 -49 c17 -28 49 -86 72 -130 30 -59 47 -81 65 -85 38 -10 59 0 76 32 21 41
6 107 -48 212 -112 214 -311 374 -435 349z"/>
<path d="M4730 4910 c-26 -26 -26 -70 0 -103 46 -59 262 -146 450 -182 116
-23 363 -31 475 -16 256 34 435 118 435 205 0 33 -18 57 -53 69 -12 4 -50 -7
-98 -28 -304 -134 -727 -119 -1058 36 -95 44 -122 48 -151 19z"/>
<path d="M3617 3797 c-4 -11 -4 -24 0 -30 3 -7 3 -9 -2 -5 -4 4 -44 -54 -87
-130 -44 -75 -105 -174 -135 -219 l-56 -83 12 -42 c7 -24 30 -75 51 -114 63
-119 254 -369 273 -357 6 3 7 1 3 -5 -7 -11 73 -113 259 -332 110 -129 237
-287 315 -392 l65 -87 18 29 c40 63 118 85 185 51 31 -16 46 -33 65 -73 l25
-52 6 49 c34 264 84 379 232 531 l80 84 -170 102 c-427 255 -730 487 -940 719
-115 128 -178 242 -188 344 -2 24 -4 26 -11 12z"/>
<path d="M4540 1840 c0 -12 -35 -27 -77 -34 -15 -2 -30 -5 -32 -5 -11 -3 24
-31 38 -31 25 1 107 80 83 80 -7 0 -12 -5 -12 -10z"/>
<path d="M3063 3092 l-112 -57 45 -60 c67 -88 165 -237 222 -339 46 -80 56
-91 101 -112 38 -17 59 -35 81 -71 64 -101 89 -223 60 -293 -10 -25 -3 -53 59
-242 91 -278 144 -452 222 -735 l64 -231 37 -11 c69 -21 137 -126 143 -220 l4
-56 88 -12 c458 -62 860 -106 1076 -119 l118 -7 -5 24 c-8 35 -34 345 -41 479
-9 180 15 458 51 571 3 12 -8 24 -38 42 -56 32 -196 142 -328 255 -84 73 -106
87 -111 74 -3 -9 -17 -50 -30 -91 -63 -200 -263 -341 -389 -276 -44 23 -79 62
-152 172 -33 51 -65 90 -71 86 -6 -3 -7 -1 -3 5 8 13 -27 63 -177 254 -55 70
-104 125 -110 121 -5 -3 -7 -1 -3 5 6 11 -19 42 -294 373 -175 209 -269 338
-332 451 -24 43 -47 77 -53 77 -5 0 -60 -26 -122 -57z"/>
<path d="M6530 2803 c-1 -194 -42 -307 -238 -643 -53 -91 -106 -193 -118 -227
-25 -73 -58 -129 -80 -137 -91 -35 -157 71 -189 303 -7 57 -16 105 -18 107 -2
3 -22 -17 -43 -43 -21 -27 -83 -94 -136 -151 -113 -121 -152 -176 -201 -289
-37 -83 -72 -191 -65 -198 2 -2 21 2 42 9 48 16 109 6 140 -23 18 -17 25 -19
28 -9 3 7 5 1 5 -15 l1 -27 -39 35 c-31 28 -47 35 -80 35 -82 0 -129 -54 -129
-150 0 -47 4 -56 39 -91 34 -34 44 -39 86 -39 31 0 56 7 75 20 50 35 58 69 59
245 1 148 3 161 23 182 29 31 54 37 89 22 59 -24 54 12 99 -704 12 -181 27
-377 36 -447 l6 -48 106 0 c185 0 594 31 877 65 66 8 123 15 127 15 4 0 1 15
-7 33 -38 92 -23 200 37 264 30 31 30 32 19 95 -9 51 -90 602 -143 973 -10 66
-17 85 -43 115 -18 19 -40 50 -50 69 -23 45 -32 150 -21 231 10 73 -5 147 -57
285 -53 140 -73 166 -153 197 -38 15 -72 27 -76 28 -5 0 -8 -39 -8 -87z m-962
-1415 c3 -30 -1 -38 -18 -43 -28 -9 -50 11 -50 45 0 34 8 42 40 38 21 -3 25
-9 28 -40z"/>
<path d="M5671 1324 c0 -6 -17 -27 -37 -47 -59 -59 -145 -58 -198 2 -15 16
-21 18 -28 9 -19 -30 -3 -349 34 -666 l12 -102 115 -1 c64 -1 131 -2 149 -3
32 -2 33 -1 28 34 -13 85 -36 329 -47 495 -10 161 -24 308 -28 279z"/>
<path d="M6147 2441 l-77 -92 0 -97 0 -97 56 95 c61 103 124 225 124 238 0 4
-6 16 -13 27 -13 17 -20 11 -90 -74z"/>
<path d="M5058 2476 c-23 -18 -42 -39 -40 -45 1 -7 -2 -10 -7 -7 -17 11 -93
-88 -132 -170 -22 -45 -39 -84 -39 -87 0 -2 24 -20 53 -39 28 -19 104 -79 167
-132 63 -53 121 -94 128 -91 7 3 11 1 8 -4 -9 -13 109 -111 135 -111 4 0 21
24 37 53 l30 52 -7 170 c-6 145 -11 176 -29 211 -23 46 -119 137 -133 128 -5
-3 -8 -1 -7 4 3 8 -72 73 -109 95 -6 4 -31 -8 -55 -27z m209 -105 c12 -6 34
-27 49 -47 54 -71 29 -200 -46 -239 -65 -34 -165 -10 -203 48 -95 146 50 319
200 238z"/>
<path d="M5122 2360 c-124 -76 -73 -280 70 -280 84 0 138 57 138 145 0 118
-114 192 -208 135z m90 -92 c21 -17 27 -39 16 -60 -10 -21 -48 -24 -66 -6 -18
18 -15 55 6 67 22 13 25 13 44 -1z"/>
<path d="M7522 631 c19 -15 35 -20 49 -16 24 8 19 17 -13 20 -13 2 -32 7 -43
11 -14 5 -12 1 7 -15z"/>
<path d="M1960 2681 c-114 -41 -305 -126 -357 -158 -18 -11 -30 -23 -25 -28 4
-5 2 -5 -5 -1 -22 12 -228 -108 -216 -127 3 -6 1 -7 -6 -3 -6 4 -25 -3 -43
-15 l-31 -23 49 -11 c73 -17 150 -52 238 -109 43 -28 82 -50 87 -48 5 1 8 -4
7 -10 -2 -7 4 -11 12 -10 8 2 12 0 7 -4 -9 -10 63 -85 75 -78 5 3 7 1 6 -4 -2
-5 20 -38 48 -73 128 -160 283 -442 373 -679 108 -289 224 -762 276 -1130 8
-63 18 -127 21 -143 l6 -27 252 0 252 0 19 72 c10 40 31 110 46 154 l27 81
-51 23 c-62 29 -120 80 -153 136 -51 87 -49 217 5 284 l29 36 -35 135 c-62
244 -171 642 -222 809 -83 272 -80 266 -117 283 -71 34 -123 144 -131 277 -5
81 -8 88 -50 148 -26 36 -49 60 -55 56 -7 -4 -8 -2 -4 4 4 6 -24 46 -63 90
-82 93 -126 132 -149 131 -9 0 -64 -17 -122 -38z m607 -743 c-3 -8 -6 -5 -6 6
-1 11 2 17 5 13 3 -3 4 -12 1 -19z"/>
<path d="M7620 2447 c0 -39 26 -81 47 -73 8 3 12 2 8 -3 -3 -5 8 -19 24 -30
16 -12 42 -46 56 -76 24 -49 27 -63 23 -147 -2 -72 -8 -100 -23 -122 -23 -34
-24 -25 21 -271 53 -289 134 -776 134 -806 0 -18 12 -35 41 -59 55 -44 82
-106 82 -190 0 -97 -42 -177 -122 -233 l-24 -16 37 -82 c40 -87 126 -312 126
-329 0 -6 46 -10 129 -10 l128 0 7 88 c4 48 16 204 27 347 14 182 22 399 26
725 6 512 6 512 66 528 40 11 60 6 86 -22 35 -37 41 -112 41 -500 0 -411 -18
-756 -56 -1108 l-7 -58 347 0 c296 0 346 2 346 15 0 24 -59 299 -105 491 -131
541 -268 914 -447 1211 -46 77 -80 119 -65 80 3 -9 1 -19 -5 -23 -8 -5 -9 2
-5 23 5 28 -3 40 -83 131 -95 107 -127 135 -143 125 -6 -3 -7 -1 -3 5 8 13
-43 54 -57 45 -6 -3 -7 -1 -3 5 9 15 -220 166 -237 156 -6 -4 -9 -3 -4 1 10
12 -102 76 -266 151 -76 35 -140 64 -142 64 -3 0 -5 -15 -5 -33z"/>
<path d="M1022 2078 c-98 -137 -163 -269 -242 -493 -122 -344 -224 -863 -278
-1407 l-17 -178 897 0 c849 0 898 1 898 18 0 22 -65 406 -86 509 -73 361 -196
730 -331 998 -98 196 -212 363 -235 349 -7 -5 -8 -2 -3 5 5 9 -15 35 -56 77
-59 59 -90 81 -73 52 4 -8 3 -10 -2 -5 -5 5 -9 14 -9 20 0 15 -101 71 -173 96
-46 16 -180 41 -222 41 -5 0 -35 -37 -68 -82z"/>
<path d="M8409 1661 l-24 -19 -6 -489 c-6 -443 -28 -895 -55 -1105 l-6 -48 84
0 84 0 13 133 c32 357 42 543 47 892 7 451 -2 593 -36 630 -28 30 -69 32 -101
6z"/>
</g>
</svg>
